<?xml version="1.0" encoding="utf-8"?>
<!-- Generator: Adobe Illustrator 20.0.0, SVG Export Plug-In . SVG Version: 6.00 Build 0)  -->
<svg version="1.1" id="Layer_1" xmlns="http://www.w3.org/2000/svg" xmlns:xlink="http://www.w3.org/1999/xlink" x="0px" y="0px"
	 viewBox="0 0 371.4 71.3" style="enable-background:new 0 0 371.4 71.3;" xml:space="preserve">
<g>
	<g>
		<path fill="#FFFFFF" d="M0,16.3h21.1c4.2,0,10.5,0,14.6,5.2c2.4,3,3,6.3,3,8.9c0,1.6-0.1,9.8-9.8,12.1c2.2,0.5,5.6,1.1,8.5,4.4
			c2.5,3,3.1,6.4,3.1,8.9c0,3.9-1.5,8.4-4.4,10.8c-4.1,3.5-8.2,4-12.4,4H0V16.3z M9.3,39.1h12c4.7,0,7.9-3.1,7.9-7.9
			c0-6.3-5.9-7.2-8.1-7.2H9.3V39.1z M9.3,62.4H22c5,0,8.6-2.8,8.6-7.8c0-4.4-3.3-7.7-8.6-7.7H9.3V62.4z"/>
		<path fill="#FFFFFF" d="M76.8,70.5l-8.5-22.3H54.6v22.3h-9.8V16.3h23.5c6.7,0,10.8,1.3,14.1,4.2c2.8,2.5,4.9,6.2,4.9,11.7c0,10.2-7,13.2-9.8,14.4
			L87,70.5H76.8z M54.6,40.4h12.2c4.8,0,10.4-1.6,10.4-8.4c0-4.1-2.7-8-9.6-8h-13V40.4z"/>
		<path fill="#FFFFFF" d="M112.2,71.3c-17.1,0-22.8-15.9-22.8-28.1c0-14.6,8.3-27.7,23.2-27.7c15.3,0,22.8,13.3,22.8,27.9
			C135.4,59.9,126.4,71.3,112.2,71.3z M122.2,29.3c-2.8-5.6-7.6-5.9-9.8-5.9c-10.2,0-12.5,10.5-12.5,20.2c0,6.4,1.1,19.9,12.4,19.9
			c4.9,0,8.5-3,10.2-6.3c1.3-2.6,2.4-6.2,2.4-13.9C124.9,41.1,124.7,34.4,122.2,29.3z"/>
		<path fill="#FFFFFF" d="M180.2,52.7c-2.1,14.3-11.9,18.6-20.6,18.6c-18.2,0-21.7-18.6-21.7-28c0-14.1,6.5-27.9,22-27.9c11.5,0,18.3,7.3,20.2,19.2
			l-9.1,1c-1-4.3-2.8-12.3-11.1-12.3c-10.9,0-11.5,14.9-11.5,19.8c0,15.5,6.2,20,11.9,20c5.1,0,9.9-4.1,10.7-11.5L180.2,52.7z"/>
		<path fill="#FFFFFF" d="M226.3,70.5h-10.4l-4.4-12.9h-20.8l-4.2,12.9h-8.4l18-54.2h12L226.3,70.5z M208.9,49.8L201,25.6l-7.9,24.2
			C193.1,49.8,208.9,49.8,208.9,49.8z"/>
		<path fill="#FFFFFF" d="M228.9,16.3h20c3.1,0,10.2,0.1,16.7,6.7c5.3,5.4,7.7,12.8,7.7,20.3c0,11.5-5.3,18.3-9,21.6c-2.3,2-8.4,5.5-17.6,5.5h-17.8
			L228.9,16.3L228.9,16.3z M238.9,62.5h8.2c8.5,0,15.7-6.5,15.7-19.6c0-9.9-5.3-18.9-14.6-18.9h-9.3L238.9,62.5L238.9,62.5z"/>
		<path fill="#FFFFFF" d="M276.7,70.5V16.3h34.9v8h-25.1V39h20.2v7.9h-20.2v15.2h25.4v8.4H276.7z"/>
		<g>
			<path fill="#FFFFFF" d="M371.4,3.5c0,1-0.3,1.8-1,2.5s-1.5,1-2.5,1s-1.8-0.3-2.5-1s-1-1.5-1-2.5s0.3-1.8,1-2.5s1.5-1,2.5-1s1.8,0.3,2.5,1
				S371.4,2.6,371.4,3.5z M370.9,3.5c0-0.8-0.3-1.5-0.9-2.1s-1.3-0.9-2.1-0.9c-0.8,0-1.5,0.3-2.1,0.9s-0.9,1.3-0.9,2.1
				s0.3,1.5,0.9,2.1s1.3,0.9,2.1,0.9c0.8,0,1.5-0.3,2.1-0.9C370.6,5.1,370.9,4.4,370.9,3.5z M369.6,5.6h-0.7l-0.8-1.8H367v1.8h-0.6
				V1.5h1.7c0.5,0,0.8,0.1,1.1,0.4c0.2,0.2,0.3,0.5,0.3,0.8c0,0.2-0.1,0.4-0.2,0.6s-0.3,0.3-0.6,0.4L369.6,5.6z M367,3.4h1.1
				c0.3,0,0.5-0.1,0.6-0.2c0.1-0.1,0.2-0.3,0.2-0.5s-0.1-0.4-0.2-0.5C368.5,2,368.3,2,368.1,2H367V3.4z"/>
		</g>
		<path fill="#FFFFFF" d="M360.4,20.3c2.3-1.9,3.8-4.9,3.8-8.1c0-5.8-4.7-10.5-10.5-10.5h-40.8c10.4,10.6,20.4,16,28.2,18.7
			c-7.8,2.7-17.7,8.1-28.2,18.7h40.8c5.8,0,10.5-4.7,10.5-10.5C364.2,25.1,362.7,22.2,360.4,20.3z M353.2,33.2h-24.4
			c9.3-6.5,17.3-9.7,24.4-9.7c2.7,0,4.8,2.2,4.8,4.8C358,31.1,355.8,33.2,353.2,33.2z M353.2,17c-7.1,0-15.1-3.2-24.4-9.7h24.4
			c2.7,0,4.8,2.2,4.8,4.8C358,14.8,355.8,17,353.2,17z"/>
	</g>
</g>
</svg>
