<?xml version="1.0" encoding="UTF-8" standalone="no"?>
<!DOCTYPE svg PUBLIC "-//W3C//DTD SVG 1.1//EN" "http://www.w3.org/Graphics/SVG/1.1/DTD/svg11.dtd">
<svg width="100%" height="100%" viewBox="0 0 371 71" version="1.1" xmlns="http://www.w3.org/2000/svg" xmlns:xlink="http://www.w3.org/1999/xlink" xml:space="preserve" style="fill-rule:evenodd;clip-rule:evenodd;stroke-linejoin:round;stroke-miterlimit:1.41421;">
    <g transform="matrix(0.16804,0,-1.54074e-33,0.16804,-28.8744,-58.4429)">
        <g transform="matrix(4.16667,0,0,4.16667,-804.679,78.1953)">
            <path d="M535.459,122.093L526.636,119.887C522.052,118.726 518.771,117.143 516.786,115.141C514.803,113.142 513.81,110.414 513.81,106.96C513.81,102.411 515.332,98.889 518.378,96.391C521.422,93.895 525.714,92.647 531.253,92.647C537.133,92.647 541.701,94.108 544.951,97.033C548.199,99.957 549.875,104.106 549.976,109.473L557.007,109.473C556.904,102.223 554.621,96.581 550.158,92.544C545.693,88.51 539.493,86.491 531.562,86.491C524.072,86.491 518.086,88.337 513.606,92.031C509.125,95.724 506.886,100.634 506.886,106.754C506.886,112.294 508.366,116.595 511.323,119.656C514.281,122.718 519.624,125.24 527.353,127.223L534.536,129.019C541.582,130.831 546.285,132.866 548.643,135.123C551.004,137.38 552.184,140.663 552.184,144.971C552.184,149.624 550.498,153.274 547.131,155.925C543.762,158.575 539.135,159.9 533.253,159.9C526.552,159.9 521.352,158.259 517.659,154.976C513.965,151.693 512.084,147.076 512.016,141.126L505.09,141.126L505.09,141.637C505.09,149.504 507.518,155.55 512.375,159.773C517.231,163.997 524.157,166.107 533.152,166.107C541.186,166.107 547.522,164.159 552.158,160.259C556.792,156.362 559.108,151.026 559.108,144.255C559.108,138.373 557.349,133.756 553.825,130.403C550.301,127.052 544.181,124.282 535.459,122.093" style="fill:#4B4A4F;fill-rule:nonzero;"/>
        </g>
        <g transform="matrix(4.16667,0,0,4.16667,-804.679,78.1953)">
            <path d="M579.27,93.827L572.96,93.827L572.96,109.475L565.521,109.475L565.521,114.605L572.96,114.605L572.96,154.36C572.96,158.533 573.609,161.415 574.908,163.005C576.208,164.595 578.432,165.391 581.577,165.391C582.705,165.391 583.904,165.295 585.168,165.109C586.435,164.92 587.835,164.62 589.376,164.21L589.324,159.183C587.58,159.56 586.297,159.808 585.475,159.928C584.655,160.047 583.92,160.106 583.271,160.106C581.764,160.106 580.722,159.731 580.141,158.977C579.559,158.226 579.27,156.687 579.27,154.36L579.27,114.605L589.376,114.605L589.376,109.475L579.27,109.475L579.27,93.827Z" style="fill:#4B4A4F;fill-rule:nonzero;"/>
        </g>
        <g transform="matrix(4.16667,0,0,4.16667,-804.679,78.1953)">
            <path d="M635.39,153.899C632.175,157.9 627.609,159.9 621.693,159.9C615.846,159.9 611.306,157.884 608.074,153.848C604.841,149.813 603.226,144.135 603.226,136.816C603.226,129.464 604.841,123.769 608.074,119.733C611.306,115.698 615.846,113.68 621.693,113.68C627.609,113.68 632.175,115.689 635.39,119.707C638.605,123.727 640.213,129.429 640.213,136.816C640.213,144.203 638.605,149.898 635.39,153.899M621.693,108.089C613.76,108.089 607.611,110.594 603.251,115.603C598.891,120.613 596.71,127.684 596.71,136.816C596.71,145.913 598.891,152.949 603.251,157.926C607.611,162.902 613.76,165.391 621.693,165.391C629.696,165.391 635.884,162.895 640.265,157.9C644.641,152.908 646.83,145.88 646.83,136.816C646.83,127.684 644.632,120.613 640.239,115.603C635.844,110.594 629.663,108.089 621.693,108.089" style="fill:#4B4A4F;fill-rule:nonzero;"/>
        </g>
        <g transform="matrix(4.16667,0,0,4.16667,-804.679,78.1953)">
            <path d="M670.711,110.807C667.923,112.619 665.743,115.356 664.171,119.014L664.171,109.473L658.065,109.473L658.065,164.004L664.579,164.004L664.579,133.943C664.579,127.548 665.939,122.743 668.658,119.529C671.376,116.314 675.455,114.706 680.892,114.706L681.714,114.706L681.714,108.089L680.997,108.089C676.925,108.089 673.497,108.995 670.711,110.807" style="fill:#4B4A4F;fill-rule:nonzero;"/>
        </g>
        <g transform="matrix(4.16667,0,0,4.16667,-804.679,78.1953)">
            <path d="M759.869,112.526C756.943,109.569 752.524,108.089 746.607,108.089C742.709,108.089 739.262,109.004 736.27,110.833C733.278,112.662 730.875,115.322 729.063,118.81C728.173,115.39 726.383,112.748 723.685,110.885C720.986,109.021 717.606,108.089 713.544,108.089C709.752,108.089 706.381,108.986 703.429,110.782C700.473,112.577 698.075,115.151 696.231,118.502L696.231,109.473L690.331,109.473L690.331,164.005L696.641,164.005L696.641,130.3C696.641,125.376 698.117,121.393 701.069,118.347C704.023,115.305 707.888,113.781 712.669,113.781C716.56,113.781 719.444,114.877 721.321,117.066C723.199,119.255 724.139,122.606 724.139,127.12L724.139,164.005L730.447,164.005L730.447,129.839C730.447,125.018 731.901,121.117 734.809,118.143C737.715,115.167 741.58,113.68 746.401,113.68C750.471,113.68 753.397,114.671 755.175,116.656C756.952,118.639 757.842,121.922 757.842,126.505L757.842,164.005L764.255,164.005L764.255,125.992C764.255,119.972 762.793,115.483 759.869,112.526" style="fill:#4B4A4F;fill-rule:nonzero;"/>
        </g>
        <g transform="matrix(4.16667,0,0,4.16667,-804.679,78.1953)">
            <path d="M267.062,119.477C259.743,117.597 254.938,115.742 252.646,113.911C250.354,112.082 249.211,109.73 249.211,106.857C249.211,104.019 250.508,101.642 253.107,99.727C255.706,97.812 259.059,96.854 263.163,96.854C268.121,96.854 272.082,98.069 275.039,100.495C277.997,102.925 279.612,106.276 279.888,110.551L291.841,110.5C291.771,103.148 289.282,97.308 284.375,92.981C279.467,88.654 272.892,86.491 264.65,86.491C256.168,86.491 249.371,88.467 244.259,92.417C239.147,96.367 236.59,101.49 236.59,107.78C236.59,113.698 238.333,118.374 241.823,121.811C245.312,125.249 251.278,128.079 259.724,130.301C260.478,130.472 261.59,130.746 263.061,131.123C269.9,132.798 274.311,134.542 276.296,136.354C277.493,137.45 278.476,138.758 279.245,140.278C280.015,141.8 280.399,143.161 280.399,144.357C280.399,147.401 279.024,149.967 276.271,152.051C273.517,154.138 269.986,155.182 265.676,155.182C259.965,155.182 255.442,153.831 252.109,151.129C248.773,148.427 246.935,144.631 246.595,139.74L234.383,139.74C234.761,148.223 237.557,154.72 242.772,159.234C247.986,163.749 255.28,166.006 264.65,166.006C273.543,166.006 280.647,163.843 285.965,159.516C291.284,155.191 293.942,149.471 293.942,142.355C293.942,136.474 292.242,131.891 288.838,128.609C285.434,125.326 278.177,122.282 267.062,119.477" style="fill:#4B4A4F;fill-rule:nonzero;"/>
        </g>
        <g transform="matrix(4.16667,0,0,4.16667,-804.679,78.1953)">
            <path d="M318.618,93.417L306.972,93.417L306.972,108.653L299.072,108.653L299.072,117.374L306.972,117.374L306.972,151.386C306.972,156.378 307.922,159.85 309.819,161.799C311.718,163.749 314.975,164.723 319.594,164.723C320.96,164.723 323.32,164.552 326.672,164.21C327.183,164.175 327.577,164.142 327.852,164.107L327.852,154.772L325.544,154.873C325.305,154.873 324.935,154.891 324.439,154.924C323.945,154.959 323.544,154.976 323.233,154.976C321.456,154.976 320.243,154.643 319.594,153.976C318.943,153.309 318.618,151.967 318.618,149.949L318.618,117.374L327.852,117.374L327.852,108.653L318.618,108.653L318.618,93.417Z" style="fill:#4B4A4F;fill-rule:nonzero;"/>
        </g>
        <g transform="matrix(4.16667,0,0,4.16667,-804.679,78.1953)">
            <path d="M369.251,143.177C369.251,147.008 367.815,150.153 364.941,152.616C362.068,155.079 358.46,156.31 354.116,156.31C351.243,156.31 349.02,155.617 347.448,154.231C345.874,152.847 345.088,150.89 345.088,148.357C345.088,146.101 345.755,144.28 347.089,142.894C348.422,141.51 350.457,140.561 353.194,140.047C354.116,139.876 355.554,139.637 357.504,139.33C362.873,138.543 366.787,137.516 369.251,136.251L369.251,143.177ZM384.077,155.797C382.81,155.797 381.929,155.472 381.434,154.821C380.936,154.172 380.689,152.788 380.689,150.667L380.689,123.221C380.689,117.817 378.818,113.74 375.072,110.987C371.328,108.233 365.779,106.857 358.424,106.857C351.414,106.857 345.883,108.456 341.831,111.652C337.778,114.852 335.75,119.203 335.75,124.71L335.75,125.633L346.883,125.633L346.883,125.223C346.883,122.418 347.84,120.264 349.756,118.758C351.672,117.253 354.423,116.501 358.015,116.501C361.88,116.501 364.734,117.133 366.584,118.398C368.429,119.664 369.354,121.631 369.354,124.298C369.354,127.581 365.643,129.702 358.221,130.66C357.708,130.73 357.313,130.781 357.041,130.814C348.148,131.943 342.011,133.917 338.625,136.738C335.239,139.56 333.546,143.776 333.546,149.384C333.546,154.514 335.126,158.532 338.29,161.44C341.453,164.346 345.823,165.8 351.398,165.8C355.024,165.8 358.424,165.006 361.606,163.414C364.786,161.824 367.505,159.576 369.763,156.668C369.832,159.508 370.731,161.611 372.457,162.979C374.183,164.346 376.826,165.032 380.381,165.032C381.307,165.032 382.272,164.962 383.28,164.826C384.29,164.688 385.325,164.482 386.385,164.21L386.385,155.643C385.667,155.711 385.161,155.755 384.871,155.771C384.58,155.788 384.316,155.797 384.077,155.797" style="fill:#4B4A4F;fill-rule:nonzero;"/>
        </g>
        <g transform="matrix(4.16667,0,0,4.16667,-804.679,78.1953)">
            <path d="M426.013,152.386C423.84,154.386 420.993,155.388 417.471,155.388C413.06,155.388 409.691,153.754 407.366,150.487C405.041,147.221 403.877,142.477 403.877,136.251C403.877,129.892 405.05,125.078 407.391,121.812C409.733,118.545 413.196,116.911 417.78,116.911C421.199,116.911 423.969,117.862 426.09,119.758C428.209,121.657 429.423,124.247 429.733,127.532L441.274,127.532C440.933,121.102 438.631,116.049 434.374,112.371C430.117,108.695 424.482,106.857 417.471,106.857C409.435,106.857 403.134,109.482 398.569,114.731C394.003,119.981 391.72,127.223 391.72,136.457C391.72,145.486 393.926,152.634 398.337,157.9C402.748,163.168 408.733,165.8 416.29,165.8C423.644,165.8 429.535,163.843 433.964,159.928C438.392,156.011 440.881,150.616 441.427,143.742L430.04,143.742C429.525,147.504 428.184,150.386 426.013,152.386" style="fill:#4B4A4F;fill-rule:nonzero;"/>
        </g>
        <g transform="matrix(4.16667,0,0,4.16667,-804.679,78.1953)">
            <path d="M498.678,108.653L484.365,108.653L462.615,131.225L462.615,88.44L451.072,88.44L451.072,164.005L462.615,164.005L462.615,145.538L470.515,137.535L485.442,164.005L499.088,164.005L478.722,129.019L498.678,108.653Z" style="fill:#4B4A4F;fill-rule:nonzero;"/>
        </g>
    </g>
</svg>
