<svg id="Layer_1" xmlns="http://www.w3.org/2000/svg" viewBox="0 0 367 254"><style>.st0{fill-rule:evenodd;clip-rule:evenodd;fill:#ddd;fff}</style><path class="st0" d="M224.5 90l-.3 3.5-.1 3.8-.1 4.3.1 4.1.1 3.7.3 3.5.2-3.5.1-3.7.2-4.1-.2-4.3-.1-3.8-.2-3.5M215.3 29.6l-.1 3.7-.2 4.3.2 4.1.1 3.7.2 3.5.3-3.5.2-3.7V33.3l-.2-3.7-.3-3.6-.2 3.6M149.8 56.4l.2-3.7V44.3l-.2-3.8-.3-3.5-.2 3.5-.1 3.8-.2 4.1.2 4.3.1 3.7.2 3.5.3-3.5M72.5 96.7l-.3 3.5-.2 4.3.2 4.1.3 3.7.5 3.6.4-3.6.3-3.7.2-4.1-.2-4.3-.3-3.5L73 93l-.5 3.7"/><path class="st0" d="M91.5 49.1l10 4.7 10 4.5-3.9 2.2-3.7 2.2-4.3 2.5-4.1 2.5-5.3-2.5-5.3-2.4-5.6-2.1-3.5-1.4 15.7-10.2zm-30.4 61.6l-4.9-2.5-2.5-1.5-1.2-.6-.4-.4-.4-.6v-2.8l.2-3.1.2-6.8.4-6.6.2-1.5v-1.4l.4-.6V82l4.3 2.5 4.3 2.3 5.5 2.7 5.5 2.8h.6l.6-.2 1.4-.9 1.3-1.2 1.4-1.2 1.2-1.3-1.8.6-1.7.6L73 90l-5.3-2.5-5.3-2.4-4.4-1.7-4.3-1.6.2-.2 10-5.6 3.9-2.4.8-.6.4-.2h.4l.2.2.8.4.8.4.2.2h.2l.4 8.9.2.8.6.4 8 3.3 8 3.3.4 4.9.4 5.5.2 2.5-.2.9-.2.2-.6.4-13 10.7 14.8-8.2.8-.6.8-.8.6-.8.6-1 .2-1.3v-.8l.2-1.3.4-5.5.2-2.5-.9-.6-9.2-5.2-9.4-5.1.4-9.3.2-.4.2-.6v-1.4l-.8-.4.2-10.3 3.5 1.9 5.5 2.9 5.5 2.9L95 70l.6.2.6-.2 4.3-2.9 4.3-3.1 3.5-2.5 3.3-2.8.4 11.7.4 11.7-7.8 5.2-8 5.5 9-4.5 8.8-4.5.4-.4.2-.6v-.2l.6-12.9.4-12.6-.2-.6-.2-.6-.4-.4-.3-.3h-.2l-10.9-5.5-11.3-5.2-.4-.2-.8-.3-.6.2-.6.2-9.1 6-9 6-.2.2-.2.2-.4.4-.2.6v.4l.2 9.3h-.4l-1.2-.2h-1.4l-1.2.5-1 .6-.4.2-.8.6-3.8 2.5-9.3 6.6-.4.2-.6.4-.8 1-.6 1L49 82v3.7l.2 6.6.4 6.8v4.9l.2.9.4 1 .6.8.8.6 1.5.8 2.5 1.2 5 2.2 10.2 4.5-9.7-5.3zM24.5 52l-.2 3.8-.1 3.7-.2 4.4.2 4.5.1 3.7.2 3.8.3-3.8.2-3.7v-8.9l-.2-3.7-.3-3.8"/><path class="st0" d="M32.8 44.4L28.6 47l-4.2 2.6-5.2-2.6-5.3-2.4-5.7-2.2L4.5 41l.2-.3.2-.2.6-.4 5.3-3.4 5.5-3.4 2.8-1.8 1.2-.8h1l1.5.6 2.9 1.4 5.9 2.6 5.7 2.6 2.9 1.2.4.2v.2l.4.4-4.1 2.2-4.1 2.3zm10.8-7.7l-.9-1-1-.6-2.8-1.2-5.6-2.8-5.6-2.6-2.9-1.4-1.5-.8-1.6-.3h-1.2l-1.4.2-1.4.6-1.3.8-2.8 1.7L8.4 33l-5.3 3.4-.6.4-1 1-.8 1-.4 1L0 41v2.4l.4 11.8v5.4l.2 2.8.2.8.4.8.6.8.6.6.8.4.6.4 1 .3 2.2 1 3.7 1.6 6.3 2.6 5.5 2.2-5.1-3-5.9-3.4-7.3-4.4-.4-.3-.3-.8v-2.4l.3-5.4.4-11.7v-2.2l3.3 2 5.5 3 5.3 2.8L24 52l.6.2.4-.2 4.5-3.2 4.3-3 3.5-2.8 3.5-2.8L41 51l.4 10.5v1l-.2.8-.4.6-.8.6-3.1 2.5-5.5 4.4-4.4 3.5 5.1-3 5.9-3.4 3.5-2.2.5-.3.6-.4.8-1.2.6-1.4.2-.8v-.8l.4-10.4.2-5.6v-3l.2-1.6V40l-.2-1.2-.4-1.2-.8-.9zM179 87.9l.4-3.5.3-3.7.2-4.1-.2-4.3-.3-3.7-.4-3.6-.5 3.6-.2 3.7-.3 4.3.3 4.1.2 3.7.5 3.5M133.6 136.5l.3-3.7V124.4l-.5-3.7-.6-3.7-.5 3.7-.3 3.7V132.8l.3 3.7.5 3.4.8-3.4M260.3 165.5l-.1 3.7-.2 4.3.2 4.1.1 3.7.2 3.6.3-3.6.2-3.7V169.2l-.2-3.7-.3-3.5-.2 3.5M288.1 118l-.5 3.7-.6 3.7V133.8l.6 3.7.5 3.4.6-3.4.2-3.7V125.4l-.2-3.7-.6-3.7M260.3 110.6l-.1 3.7-.2 4.1.2 4.3.1 3.7.2 3.5.3-3.5.2-3.7V114.3l-.2-3.7-.3-3.6-.2 3.6M315 107l-.6 3.6-.2 3.7-.2 4.1.2 4.3.2 3.7.6 3.5.4-3.5.3-3.7.2-4.3-.2-4.1-.3-3.7-.4-3.6M346.5 90l-.2 3.5-.3 3.8V105.7l.3 3.7.2 3.5.3-3.5.2-3.7V97.3l-.2-3.8-.3-3.5M93.7 164.4l.3-3.7V152.3l-.3-3.7-.3-3.6-.2 3.6-.2 3.7V160.7l.2 3.7.2 3.5.3-3.5M95.3 73.8l-.2 3.9L95 82l.1 4.4.2 3.9.3 3.6.2-3.6.2-3.9v-8.7l-.2-3.9-.2-3.8-.3 3.8M287.5 52.6l-.2 3.7-.3 4.3.3 4.1.2 3.7.5 3.5.4-3.5.3-3.7.2-4.1-.2-4.3-.3-3.7-.4-3.6-.5 3.6"/><path class="st0" d="M355 81.8l-4.3 2.6-4.1 2.8-5.3-2.6-5.3-2.3-5.6-2.4-3.3-1.2.6-.2 5.3-3.3 5.3-3.3 2.7-1.7 1.4-.8.4-.2.6.2 1.4.6 2.9 1.4 5.9 2.5 5.8 2.6 2.8 1.2.4.2h.2l-3.9 2-3.9 1.9zm-86.2 16.9l-4.3 2.6-4.1 2.6-5.3-2.4-5.3-2.3-5.6-2.3-2.7-1v-.2l1.6-.8.9-.2.8-.4.6-.6.4-.6 1.2-.8 5.3-3.3 2.7-1.6 1.4-.9h1l1.3.8 2.9 1.2 5.9 2.6 5.7 2.6 2.9 1.2v.2l-7.3 3.6zm-29.1 23.7l.4.2V137l-1.2.6-6.5 3.7-7.3 4.3-.2-7.1-.4-11.6-.2-3.7 1.2-.8 5.4-4.1 5.3-4.3v1.9l.2 2.7.2 1 .4.8.6.6.6.6.8.6.7.2zm12.1 21.4l2.5-1.6 1.3-1h1l1.4.8 2.9 1.2 5.8 2.6 5.9 2.6 2.8 1.2.2.2-6.8 3.7-4.3 2.6-4.1 2.7-5.3-2.6-5.3-2.3-5.6-2.3-2.9-1 1.6-1.2h1l.8-.4.6-.6.4-.6.8-.6 5.3-3.4zm-12.7 33.6l1.2.4 1.6.8.2 7.8-2.5 1.6-10.4 6.3-3.7 2.4v-3.6l.2-19v-1l3.1-2.3 5.3-3.9 1.8-1.3v.2l.2 5.3v2.8l.4.9.4.8.4.6.6.6.8.6h.4zm3.7 34.3l-18.4 12 .2-2.3.4-11.8.2-10.2 4.9-3.3 10-7.1 1.9-1.4.8 24.1zm-77.2 25.6v-.4l-.2-2-.6-11.3v-.2l.2-8.4 6.5 2.9 10.5 4.5 3.5 1.4.4 9.8.6 8.6.6 5.7-21.1-10.6h-.4zm-5.9 3.1l-4.3 2.2-.6.2-.2.2h-.6l.2-1.9.2-3.6.2-4.3-.2-4.3-.2-3.6-.4-3.7-.4 3.7-.2 3.6v8.6l.2 3.6.2 1.9-.2-.2-1-.3-9.4-4.7-4.9-2.4-2.5-1.2-1.8-1-.2-.4v-8.6l-.2-10.4v-2.3l.4-.8 3.1 1.9 5.5 2.9 5.5 2.7 5.5 2.8.6.2.6-.2 2.3-1.6 2.2-1.6 2.2-1.6 1.9-1.8.2 8.8v1l-.6 10.6-.2 2v.9l-.6.8-.2.6-.2.2-1.9 1.1zm-41.6-26.7l.6-8.8.2-11.8 4.7 2.3 16 7.7-1.6.8-1.9.9-2.2 1.2-1.2.6-.4.2-1 .6-.6.8-.6.8-.4.8-.2 1.2v1.4l-.2 1.2v6.3l-11.3-5.5v-.7zm1-48.1l1.9 1.2 12.5 6.3 6.4 3.2v1.6l.4 12.7.4 9.1.2 1.6-16.6-7.7-5.3-2.6v-25.4zm22.2-56.9l-4.3 2.6-4.1 2.6-5.3-2.6-5.3-2.4-5.9-2.1-2.8-1.2.8-.3 2.2-1.4 8.3-5.3 2.1-1.4 1.6-1 .4-.2h.6l.8.4 1 .4 8.4 3.3 7.4 2.9 1.6.6.6.4.2.2-4.1 2.2-4.2 2.3zm-39.2 28.1l-4.3 2.6-4.2 2.6-5.3-2.4-5.5-2.3-5.6-2.3-3.5-1.4 16-10.2 10 4.7 10 4.7-3.9 1.9-3.7 2.1zm69.7-31.6l6-3.9 15.5 7.3 5.3 2.2-6.6 3.9-7 4.5-2.5 1.8-3.1-1.4-9.2-4.3-8.2-3.6 9.8-6.5zm-20.9-38.9l3.7 2.9.2 4.2v2.5l.2 1 .4.8.6.8.6.6.8.4.6.2 1 .6 2 .7 3.8 1.8 6.3 2.6 1.6.6 1.2 10.6 1.2-9.6 1.6.6-4.9-2.9-5.9-3.6-7.4-4.1-.4-.6-.2-.6.2-2.3.2-5.5.4-11.6v-2.2l.2-.2.2-.4 2.9 1.8 5.5 2.9L173 61l5.4 2.6v.2h.6l.6-.2 4.3-2.9 4.3-3.1 3.5-2.6 3.3-2.5.2.2.4 11.2.4 10.4v.9l-.4.8-.4.6-.6.6-3.3 2.6-5.3 4.1-4.7 3.7 5.1-2.9 5.9-3.3 3.5-2.2.6-.4.6-.4.9-1.2.6-1.4v-1.6l.4-7.4 9.4 4.3-2.9 1.8-1.6.9-.8.4-.2.2-.4.2-.6.6-.8 1.2-.6 1.3-.2 1.6v1L200 84v1.4l-2.3 1.3-1 .6-8.2-3.3 6.8 4.1-4.5 2.6-9.6 5.7-3.3 2.2h-.2l-16.7-8-1.7-.8-3.7-1.8-4.7-2.3V66.3zm3.7 1l-3.7-1.2 3.5-2.4.2 3.6zm3.7-39.2l-4.3 2.6-4.2 2.6-5.3-2.4-5.3-2.3-5.7-2.3-4.1-1.4.2-.2 5-3.1 10.4-6.5.6-.2h.4l.2.2 2.7 1.2 5.7 2.6 5.6 2.5 4.9 2 .4.4v.2l-3.7 1.9-3.5 2.2zm14.9 16.5l1.4-.8h1l1.4.6 2.9 1.4 5.9 2.6 5.6 2.5 2.9 1.2h.2l-3.7 1.9-3.7 2.2-4.1 2.6-4.3 2.6-5.3-2.4-5.3-2.3-5.7-2.4-2.9-.9.4-.2 5.3-3.3 5.3-3.3 2.7-2zm43 25.8l2.5-1.7 1.2-1 .8-.2h.9l1 .2 2.3.8 3.9 1.4.6.2.2.8v3.4l.2.8.6 1.6 1 1.2.6.4.4.4h.4l.8.4 2.9 1.2-5 2.8-6.9 4.1-5.3-2.6-5.3-2.3-5.6-2.4-3.5-1.2.2-.4 5.5-3.9 5.6-4zm27.6-23.7l5.9-4.3.6-.4.2-.2H251.7l.8.2 1.6.6 5.5 1.8 4.3 1.4.2 5.9v3.5l-3.8 1.8-5.5 3.3-5.3-2.3-5.3-2.4-5.6-2.3-2.8-1 1.6-1.2 3.3-2.2 3.1-2.2zm24.6-9.6l.6-.4 5.3-3.3 5.4-3.3 2.8-1.7 1.2-.8.6-.2.4.2 1.6.6 2.9 1.4L295 32l5.6 2.6 2.8 1.2.4.2h.2l.2.4-3.9 2.2-4.1 2.2-4.1 2.6-4.3 2.7-5.3-2.6-5.3-2.3-5.7-2.4-3.5-1.2.2-.4h.2zm-33.3 15.7zm10.8 31l3.7 1.3-3.7 2.4v-3.7zm-22.3 54.8l-.2 8.2-9.8 6.1-7 4.7-.2-8.1-.4-11.7-.2-2 7.6-4.9 6-4.1 4.7-3.6v3.7l-.5 11.7zm-12.7 41.5l-3.9 2.8-.2-16.7-.2-6.1 8.4-5.1 8.4-5.7-.2 5.9v17.2l-6 3.8-6.3 3.9zm-68.8-27.6l.2-.2 9.2 4.5 11.7 5.3-.2 5.5-.2 17.3-13.9-6.9-6.8-3.1v-22.4zm-23.3 11.6v-3.3l.6-8.7.4-9.4 8.6 4.3 11.5 5.4-.2 10.6.2 10.8-5.4-2.6-12.9-5.7-2.8-1.2v-.2zm25.2-38.7l4.7 2.8 6.9 3.5 8 3.9.4.2-.2 2.8-.4 11.9-.2 9.4-10.7-5.3-9.2-4.3-.2-3.1v-3.3l-.2-6.5-.6-12.2.6-.6 1.1.8zm52.7 4.3l6.3 2.6h.4l-4.7 2.9-5.9 3.7-5.6 3.5-7.6-3.1-8.8-3.6-5.5-2.1 1.2-.6 4.9-2.7 5.3-3.2 6.1-3.6 7.4 3.3 6.5 2.9zm8.4 19.8l-.2 9.2-.9.8-8.4 6.1-6.1 4.3-.6.6-.4-7.8-.8-9.8-.4-5.4h.6l.6-.4 6.3-3.9 6.3-3.9 4.7-3.1v1.8l-.7 11.5zm-10.8 42.2l-5.1 3.7v-6.8l-.2-9.4-.2-8.4 1-.4 6.2-3.7 8.8-5.3-.2 4.9v18.2l-10.3 7.2zm-28.9-55.3l4.2 2.2 8.4 4.5 8.4 4.1.8.2-.4 5.4-.8 9.8-.4 9-2.4-1.3-7.6-4.1-10.6-5.5-.2-10.2-.4-11.9-.2-2.8 1.2.6zm-.2 49.6v-18.5l-.2-4.5 10.2 4.3 7.8 3.3 2.5.9-.2 7.4-.2 9.4v7.7l-.4-.2-8.8-4.7-10.7-5.1zm39.5 18.5l.2 5.7-9 6.3-7 5.1.2-4.5.2-9.2V196h.2l5.7-3.3 9.6-5.7v17.5zm3.5-89.5l10.4 4.5 3.9 1.6-4.9 2.8-6.5 3.7-7.4 4.5-.6-.2-5.9-3.3-5.9-3.2-6.6-3.3 1.3-1 7.6-4.9 6.4-4.7 8.2 3.5zM200 90.9v.8l.2 7.2V100.5l.2.4v.8l.4.6.6 1.2.9.9.8.4.4.2 1.6.6 1.8.8-2 .9-4.3 2.4-6.3-3.2-14.1-6.8 2.1-1.6 9.2-6.3 4.5-3.3 4 2.4zm0-2.2l-2.7-1.2.6-.4 2.2-1.8v3.4zm-49.1 30l2.9-2.2 6.6-4.1 8.2 4.5 9.6 4.7 1.8.8-5.1 3.6-4.3 3.1-4.7 3.6-1 1-1.2-.4-7.6-3.5-6.8-2.8-5.1-1.9-1.2-.4 7.9-6zm6.8 90.7l-16.6-8v-1.8l.6-9.1.4-12.7v-.6l5.9 2.9 14.5 6.9h.4l.2 19.4.2 5.7-5.6-2.7zm-3.9 9.2l-5.3-2.6-5.3-2.3-5.6-2.2-3.5-1.4.6-.2 1-.8 2.2-1.2 1.9-1.2 1.6-.9.6-.2h.6l.8.4 1 .4 7.6 2.9 5.5 2.2 5.8 2.6v.2l-2.5 1-2.4 1-4.6 2.3zm31.3-10.8l.2 9.2.2 6.7-3.3-1.8-10.2-5.3-7-3.7.2-6.5v-18.2l10.1 4.5 9.2 3.7.6.2v11.2zm2.2 40l.6-5.7.6-8.6.4-11.6h.2l7.4-4.3 8.4-5.1.2 8.8.6 11.7v2.8l-18.4 12zm36.3-38.2l.4 11.8.2 2.5-18.4 11.8.2-2.6.4-11.7.2-10 .2-.2 11.7-7.4 4.9-3.1.2 8.9zm-.4-16.5l.2 4.7-6.1 3.9-10.5 7.1v-4.3l.2-18.8 5.3-3.6 11-7.4v18.4zm16.9-47.1l-1.4.8-.8.6-1 .8-.6 1-.6 1.1-.2 1.4V154.1l.2 11.2-1.9 1.2-5.6 3.2-2.5 1.6-.2-15.9-.2-7.3 8-5.7 5.9-4.3 1-.6v8.5zm-1-54.2l-.6.6-1 .8-.8 1-.4 1.2-.4 1.4v.8l.2 1.6v5.9l-9.6 6.3-.4.4-.1.2v.4l.2.4.4.4.6.2.6-.2 8.4-5.5.2 3v3.1l-6.1 3.1-6.2 3.2-1.6.9-3.7-1.9-10-5.3-7-3.6 3.3-2.6 1.8-1.3 3.9 1.6 4.7 1.9 3.9 1.4 3.1 1-2.7-2-3.5-2.2-4.3-2.6-5.5-3.1-1.4-.8-.4-.4-.2-.2-.2-.6v-1.6l.4-7.2V79.1l3.1 1.9 5.5 2.9 5.5 2.7 5.5 2.8h.6l.6-.2 3.5-2.3 3.5-2.6 4.9-3.9 2.4.9.4.2v9.6l-1.1.7zM267 63.4l1.2.6 1.8.8v.2l.6 4.5.3 4.1-.2.6-.2.4-.2.2-2.2 1.8-7.4 6.3h-.2l-1.6-.6-1.3-.6h-1.2l-1.4.2.2-3.3.2-3.7-.2-4.1-.2-3.7-.4-3.7-.3 3.7-.2 3.7-.2 4.1.2 3.9.2 3.6-.4.2-1.6.8-1.9 1.4-3.7-2.6-5.5-3.6-5.6-3.3-.8-.4-.2-.2h.2l-.2-.4V73l.2-1.8.2-7.8.2-8.1v-2.5l2.8 1.6 5.5 2.9 5.5 3 5.5 2.5.6.2.6-.2 2.7-1.9 2.9-2.2 2.8-2.3v.8l.2 2.7.2 1 .4.8.4.8.8.6.8.4.1-.1zm99.9 13.9l-.6-1.4-.6-.9-1-.8-.9-.6-2.8-1.4-5.6-2.6-5.9-2.7-2.9-1.4-1.4-.6-1.3-.4-1.4-.2-1.2.2-1.4.6-1.4 1-2.7 1.8-5.3 3.3-5.3 3.5-.8.4-1 1-.6 1-.6.9-.2 1.4V84.7l-.8-.4-3.7-1.6-2.4-1-1.2-.6-.8-.2-.4-.2-.6-.2-1-.2-1.2.2-1.2.2-1 .6-2.7 1.8-5.9 3.9-6 4.1-.6.6-.6.6-.8 1.4-5.2-2.4-.9-.3h-1.6l-1.6.2-1.3.6-.8.6v-.2l-.9-.9-1.2-.4-2.8-1.4-5.6-2.8-5.7-2.5-1.7-.8 8.2-4.5 2.3-1.2.8-.6.8-.8.4-.8.4-.8.4-1.2v-.8l.2-1.2.2-2.2.2-2.4 4.7 2 5.5 2.2-5.1-2.9-5.9-3.6-7.4-4.1-.4-.6v-3l.2-5.4.4-11.6.2-1.6V37.7l3.1 2 5.5 2.9 5.5 2.7 5.5 2.8h.6l.6-.2L293 45l4.3-2.9 3.5-2.7 3.5-2.9.4 10.9.4 10.4v.9l-.2.8-.4.6-.8.6-3.3 2.6-5.3 4.1-4.5 3.7 5.1-2.9 5.9-3.6 3.5-2.2.6-.2.3-.4 1-1.2.6-1.6.2-.6v-.8l.4-10.4.2-5.7v-4.3l.2-.8-.2-1.2-.4-1.4-.8-.9-1-.8-1-.6-2.7-1.4-5.6-2.6-5.9-2.7-2.8-1.4-1.6-.6-1.4-.4-1.2-.2-1.3.2-1.4.6-1.4 1-2.7 1.8-5.3 3.3-5.3 3.5-.6.4-.9 1-.8.9-.4 1-.4 1.4V40l.2 4.6-3.7-2.4-4.7-2.7-1.4-.8-.8-.3-1.2-.4-1.2-.2-1.2.2h-.8l-.8.4-.8.3-6.2 3.6-3.4 1.9-3.3 2.2-1.7 1-.6.4-.8.6-.6.8-.4.6-.4.8-.4.9v1l-.2.6v10.3l.2 5.9-.2-.2-3.5-1.9-2.2-1.2-.6-.4-.8-.4-.8-.2h-1l-1 .2-.9.4-1.4.6-2.8 1.6-3.7 2.1-11.9-5.4v-.4l.2-5.7.2-2.9V53l-.2-1.2-.4-1.2-.6-1.2-1-.8-1-.6-2.7-1.4-5.9-2.6-5.6-2.7-2.9-1.4-1.4-.6-1.3-.4H173.3l-1.4.6-1.6 1-1.4 1 .4-8.8.2-5.7v-3.7l-.2-.6-.2-.6-.6-1.2-.8-.8-.4-.6-.4-.2h-.2l-.8-.4-1.4-.6-2.7-1.4-5.5-2.6-5.7-2.5-2.9-1.4-.3-.2-.8-.2-1.2-.2-1.3.2-1.2.4-.9.6-.6.4-1.4.8-2.7 1.8-5.1 3.3-2.7 1.8-1.2.8-.6.4-1 .6-.8 1-.6.9-.4 1-.2 1.3v3l.2 11.3.2 5.3v1.9l.2 1 .3.8.4.8 1 .8.8.4 8 3.5 6.1 2.6 5.4 2.2-5-2.9-5.7-3.3-7.4-4.3-.4-.4-.4-.6V47l.2-.6V45l.2-5.3.4-11.3v-2.8l.2-.6 3.8 2.3 5.5 2.9L144 33l5.5 2.6.6.2.4-.2 4.5-2.9 4.3-3.1 6.4-4.9.2 2.6.2 5.7.4 10-.2.6-3.7 2.4-5.1 3.5-.8.4-1 1-.6 1-.6.9-.2 1.4v2l-2.5 2.8 2.5-1v3l-5.5 3.6-.3.4V84.7L132.8 77H132.2l-.6.2-7.3 5.1-2.1 1.2-2.8 1.9-2.3 1.9-3.2 2.2-.2.2v.2l.6 9.4.4-8.7.6.4 1.2 1 1.4 1 1.6.6 1.6.2h1.6l-.2-.4-.8-.8-1.2-.9-1.6-.8-1.6-.6-1.3-.4h-.6l1.4-.8.8-.4 2.7-1.4 3.3-1.9 2.3-1.8 2.2-1.6 4.2-2.8 16.2 7.9.6.4.6.2h.2l3.9 1.8-1.2.4-2.2 1-2.5 1.3-2.2 1.8-1.9 1.6-1.2 1.4-.4.6.6-.2 1.8-.6 2.3-1 2.4-1.6 2.3-1.6 1.8-1.6.9-1.2 5.7 2.7 15.5 7.5-4.9 3.1-10.6 7.1-.6.4-4.7-1.8-2.4-.9 2.2 1.4 3.9 2.2-5.7 3.9-1.6.8.2-2.1.2-1.4v-.8l.4-5.3.2-1.6-.2-.6.2-1.2-.2-.6-.4-.4-2.9-1.3-.6-.4-7-3.6-8-3.9-1-.6-1.4-.6-.9-.2-.6-.2h-.4l-.6.2-.4.2-.7.2-1 .4-.3.4-1.2.6-1.9 1.3-8.4 5.1-1.9 1.4-1.2.6-.8.6-.6.8-.7.8-.4 1-.2 1-.2.9v2.4l.2 9.6.2 8.4-18.2-8.8-.6-.2h-1.2l-.6.4-9 5.9-9.2 6.3-.4.4-.2.4-.2.4-.2.6.4 12.3.4 12.4v.2l.2.6.6.6 10.6 4.3 10.4 4.3-9.4-5.5-9.4-5.3.4-11.4.2-11.4 3.5 2.2 5.3 2.9 5.5 2.7 5.5 2.6.6.2.6-.2 4.3-2.9 4.3-3.1 3.5-2.6 3.5-2.8.2 11.8.6 11.8-8 5.3-7.8 5.7 9-4.6 8.8-4.7.4-.4.2-.6v-.1l.4-11.7.4-12 1.3.8 6.3 2.6 4.9 2 4.3 1.6-3.9-2.6-4.5-2.6-5.7-3.5-3.5-1.8-.6-.4-.2-.4-.2-.6v-.4l.4-9 .2-9.6V107l.2-.2v-.2l.2-.4 3 1.6 5.3 3 5.5 2.9 5.5 2.6h.2l.4.2.6-.2 4.3-2.9 4.3-3.1 3.9-2.9 3.7-2.9.4.4.2.6v.2l.2 4.9.4 3.8.2 2.3-1.3.6-10 5.9-.6.6-.2.8v.2l-.4 12.2-3.3 3.3 3.3-1.7v8.6l-8.3-3.9-8.6-3.9.8-1.9-4.1-.2-.8.2-.8.2-.8.6-.4.8-.2.8v.6l.2.6.2.6.4 10.9.6 8.7v2.7l-2.8-1-1.8-.8-3.5-1.4 3.3 1.8 1.8 1 2.9 1.8-.2 13.3.2 11.9-7.3-3.3-10.4-4.3-4.1-1.8 3.9 2.2 10 5.3 7.9 3.9v.4l.4 12.3.4 8.8v.4l-21.3-10.6L94 169l-2.4 36.3v.2l.4.9.4.6.8.6h1.1l34.8 17.3v4.7l-.2 2.7.2 1v.6l.2.6.6 1 .6 1 1.2.8.2.2h.2l.4.2 1.2.6 2.5 1.2 4.9 2.4 9.6 4.3.6.2.6.4 1.2.2h1.8l.9-.2.8-.4.6-.4 4.1-2.4 1.8-1.1.2.2 22.3 11 .6.4h.6l.8-.2.8-.2.6-.6.6-.6v-.4l73.2-47.5.8-.2.6-.6.4-.8v-.8l-2.2-16.3-1.8 14.5-.2.2-17.4 11.1.8-25.3 3.3-2.6 2.5-1.9-2.7 1.6-3.2 1.8.2-5.7 2.2.8 6.3 2.6 5.5 2.3-5.1-3.2-5.8-3.3-3.2-1.8-.2-.2-.4-.2-3.7-1.9-.4-.6-.2-.6.2-2.6.2-5.3.4-11.6v-2.2l.2-.2.4-.6v-.2h.2l3.2 1.8 5.4 2.9 5.5 2.7 5.5 2.8h.6l.4-.2 4.5-2.9 4.3-2.9 6.3-4.9.2.2.4 11.2.4 10.4v.8l-.2.8-.4.8-.8.6-3.3 2.3-5.3 4.3-4.7 3.7 5.1-2.9 5.9-3.5 3.5-2.2.6-.2.6-.6.9-1.2.6-1.3.2-.8v-.6l.4-10.4.2-5.7v-6.5l-.6-1.2-.6-1-1-1-.9-.4-2.8-1.3-5.6-2.8-5.9-2.6-2.9-1.3-1.4-.6-1.3-.4-1.4-.2-1.2.2-1.3.6-1.4.8-2.7 1.7-3.3 2.2v-16.9l.6.2 6.3 2.6 5.5 2.4-5.1-3.2-5.9-3.3-7.2-4.1-.4-.6-.2-.6V116l.4-5.3.4-11.6V96.7l.3-.6 3 1.8 5.4 2.9 5.5 2.7 5.5 2.6.6.2.4-.2 4.5-2.9 4.3-3.1 3.3-2.6 3.3-2.6.4.4.2 11.2.4 10.4v.8l-.2.8-.4.8-.8.6-3.2 2.4-5.5 4.3-4.5 3.8.8-.6.2.6.6.8.6.8.9.8.8.2 1.4.6 2.7 1.2 14.7 5.5-13.3-8.2-2.5-1.6-1.2-.8-.6-.2v-.2l-.2-.6v-.2.2-.4l.2-.8 5.9-3.5 3.5-2.2.6-.2.6-.6.8-1.2.6-1.4.2-.8v-.6l.2-3.5 7.4 2.9.4.2.2-.2 2.9-2.6-3.3 1.6-7.6-4.3.2-4.5.2-5.7v-2.2l2.9-1.8h.4l6.9 2.9.4.2.2 14.7v1.7l.2 1 .4.9.8 1 .8.6 1.6.6 5.7 2.6 2.5 1.4.4 1.9v1.6l-.2.6-.2.2-.6.4-1.9 1.8-10.7 9.2 12.3-6.9 2.3-1.2.6-.4 1-.6.6-.6.4-.8.4-.9.4-1 .2-1.2 4.3 1.9-11.4-6.1-5.6-2.9-1.4-.8-.6-.4-.4-.6-.2-.6v-2.5l.6-15.1v-3.9l.2-.8 4.9 3.1 5.1 2.8 5.5 2.7 5.4 2.6.6.2.6-.2 1.6-1.2 1.6-1.4 1.6-1.4 1.4-1.6-1.9.8-1.8.8-3.1 1.6-5.3-2.4-5.3-2.3-5.3-2.2-5.4-1.9.4-.8.8-.6 6.3-3.7 6-3.5 2.8-1.8.6-.2.8.2 11 5.3v3.6l.2 5.4v2.6l.4 1 .2.8.6.8.6.6.8.4.6.2 1 .6 2.2.8 3.1 1.4-.2.6.4 4.5v3.1l-.2 1-.6.8-.8.8-2.2 1.6-11.4 8.4 12.1-7.4 2.2-1.4.6-.4.6-.6.6-.6.4-.6.2-.6.2-.8.2-1.2V108.9l4.9 2 5.5 2.2-5.1-2.9-5.9-3.6-7.4-4.1-.4-.6-.2-.6.2-2.4.2-5.4.4-11.6v-2.2l.2-.2.2-.4 3.1 1.9 5.3 2.9 5.5 2.7 5.6 2.8h.4l.6-.2 4.5-2.9 4.3-2.9 3.3-2.8 3.5-2.6.4 11.2.4 10.4v.9l-.2.8-.6.6-.6.6-3.4 2.6-5.3 4.1-4.7 3.7 5.1-2.9 5.9-3.6 3.5-2.2.6-.2.6-.4 1-1.2.6-1.6v-1.4l.6-10.4.2-5.7v-6z"/><path class="st0" d="M195.9 14.6l.6-.6 5.5-3.1 5.3-3.6 2.8-1.6 1.3-.8.4-.2.6.2 1.4.6 2.9 1.3 5.9 2.6 5.6 2.3 2.9 1.4h.4v.2l.2.2-3.9 2.2-3.9 2.2-4.3 2.6-4.2 2.7-5.3-2.6-5.3-2.3-5.7-2.4-3.5-1.2v-.2h.3zm-4.7 3l.2 11.6.2 5.3v2.8l.2 1 .4.8.6.6.6.8.8.4.6.2 1 .6 2.2.8 3.7 1.6 6.3 2.7 5.5 2.2-5.1-3.1-5.9-3.4-7.3-4.2-.4-.6-.2-.6.2-2.3.2-5.5.4-11.6V15.4l3.3 2 5.5 2.9 5.5 2.8 5.5 2.7h.6l.6-.2 4.3-3 4.3-3 3.5-2.7 3.5-2.8.2 11.1.4 10.5v1l-.2.8-.4.6-.6.6-3.3 2.6-5.5 4.1-4.5 3.7 5.1-3 5.9-3.5 3.5-2.2.6-.2.6-.4.8-1.2.6-1.6.2-.6v-.8l.4-10.5.2-5.8.2-2.9v-2.2l-.2-1.4-.4-1.2-.6-1-1-1-.9-.4-2.9-1.3-5.7-2.6-5.6-2.8-2.9-1.3-1.5-.6-1.2-.4-1.8-.2-1.2.2-1.3.6-1.5 1-2.5 1.8-5.5 3.4-5.3 3.6-.6.4-1 .8-.8 1-.4 1.2-.2 1.3-.2.4.2.3v1.6z"/></svg>
